<svg width="20" height="20" viewBox="0 0 20 20" fill="none" xmlns="http://www.w3.org/2000/svg"> <path d="M16.7266 4.5933C17.0911 4.22881 17.0911 3.63786 16.7266 3.27337C16.3621 2.90888 15.7712 2.90888 15.4067 3.27337L10 8.68007L4.5933 3.27337C4.22881 2.90888 3.63786 2.90888 3.27337 3.27337C2.90888 3.63786 2.90888 4.22881 3.27337 4.5933L8.68007 10L3.27337 15.4067C2.90888 15.7712 2.90888 16.3621 3.27337 16.7266C3.63786 17.0911 4.22881 17.0911 4.5933 16.7266L10 11.3199L15.4067 16.7266C15.7712 17.0911 16.3621 17.0911 16.7266 16.7266C17.0911 16.3621 17.0911 15.7712 16.7266 15.4067L11.3199 10L16.7266 4.5933Z" fill="#222426"/> </svg>